<svg viewBox="0 0 32 32" xmlns="http://www.w3.org/2000/svg"><path d="M30.335 26.445q-.192-.332-1.231-.202-1.913.248-2.778-1.251-.655-1.134-.339-2.28c.316-1.146.836-1.854 1.874-3.272l.649-.904q2.892-3.994 1.186-6.95c-1.157-2.006-4.5-1.837-6.903-.806C20.849 6.771 16.753 4 12 4 5.372 4 0 9.373 0 16s5.372 12 12 12c6.627 0 12-5.373 12-12 0-1.469-.277-2.871-.76-4.171a9.3 9.3 0 0 1 2.696-.536c1.202-.044 2.29.208 2.722.956q1.445 2.504-1.395 5.913l-.388.466q-3.32 3.985-1.591 6.982.699 1.209 2.225 1.727 1.527.517 2.585-.096.526-.303.241-.796M6.5 18.562a2.5 2.5 0 1 1 0-5 2.5 2.5 0 0 1 0 5m5.5 5.5a2.5 2.5 0 1 1 0-5 2.5 2.5 0 0 1 0 5m-.98-8a1.001 1.001 0 1 1 2.002.002 1.001 1.001 0 0 1-2.002-.002m.98-3a2.5 2.5 0 1 1 0-5 2.5 2.5 0 0 1 0 5m5.5 5.5a2.5 2.5 0 1 1 0-5 2.5 2.5 0 0 1 0 5"/></svg>